<mxfile host="app.diagrams.net" modified="2023-06-07T16:15:39.924Z" agent="Mozilla/5.0 (X11; Linux x86_64; rv:109.0) Gecko/20100101 Firefox/113.0" etag="zdlVHoBMsD6kcEd9_W_7" version="21.3.7" type="github">
  <diagram id="C5RBs43oDa-KdzZeNtuy" name="Page-1">
    <mxGraphModel dx="1793" dy="879" grid="1" gridSize="10" guides="1" tooltips="1" connect="1" arrows="1" fold="1" page="1" pageScale="1" pageWidth="827" pageHeight="1169" math="0" shadow="0">
      <root>
        <mxCell id="WIyWlLk6GJQsqaUBKTNV-0" />
        <mxCell id="WIyWlLk6GJQsqaUBKTNV-1" parent="WIyWlLk6GJQsqaUBKTNV-0" />
        <mxCell id="Tbp9QO6u7D3Sz9GEOeP3-2" value="" style="edgeStyle=orthogonalEdgeStyle;rounded=0;orthogonalLoop=1;jettySize=auto;html=1;" edge="1" parent="WIyWlLk6GJQsqaUBKTNV-1" source="Tbp9QO6u7D3Sz9GEOeP3-0" target="Tbp9QO6u7D3Sz9GEOeP3-1">
          <mxGeometry relative="1" as="geometry" />
        </mxCell>
        <mxCell id="Tbp9QO6u7D3Sz9GEOeP3-0" value="Начало" style="ellipse;whiteSpace=wrap;html=1;" vertex="1" parent="WIyWlLk6GJQsqaUBKTNV-1">
          <mxGeometry x="190" y="60" width="120" height="80" as="geometry" />
        </mxCell>
        <mxCell id="Tbp9QO6u7D3Sz9GEOeP3-4" value="" style="edgeStyle=orthogonalEdgeStyle;rounded=0;orthogonalLoop=1;jettySize=auto;html=1;" edge="1" parent="WIyWlLk6GJQsqaUBKTNV-1" source="Tbp9QO6u7D3Sz9GEOeP3-1" target="Tbp9QO6u7D3Sz9GEOeP3-3">
          <mxGeometry relative="1" as="geometry" />
        </mxCell>
        <mxCell id="Tbp9QO6u7D3Sz9GEOeP3-1" value="&lt;div&gt;Ввод номера уравнения, границ интервала и погрешности:&lt;/div&gt;&lt;div&gt;f(x), a, b, eps&lt;br&gt;&lt;/div&gt;" style="shape=parallelogram;perimeter=parallelogramPerimeter;whiteSpace=wrap;html=1;fixedSize=1;" vertex="1" parent="WIyWlLk6GJQsqaUBKTNV-1">
          <mxGeometry x="140" y="170" width="220" height="90" as="geometry" />
        </mxCell>
        <mxCell id="Tbp9QO6u7D3Sz9GEOeP3-6" value="" style="edgeStyle=orthogonalEdgeStyle;rounded=0;orthogonalLoop=1;jettySize=auto;html=1;" edge="1" parent="WIyWlLk6GJQsqaUBKTNV-1" source="Tbp9QO6u7D3Sz9GEOeP3-3" target="Tbp9QO6u7D3Sz9GEOeP3-5">
          <mxGeometry relative="1" as="geometry" />
        </mxCell>
        <mxCell id="Tbp9QO6u7D3Sz9GEOeP3-3" value="&lt;div&gt;n = [2 * (b - a)]&lt;/div&gt;&lt;div&gt;dx = 0.0000001&lt;/div&gt;&lt;div&gt;k = 0&lt;/div&gt;&lt;div&gt;old_s = 0&lt;/div&gt;&lt;div&gt;&lt;div&gt;x = a&lt;/div&gt;&lt;/div&gt;" style="whiteSpace=wrap;html=1;" vertex="1" parent="WIyWlLk6GJQsqaUBKTNV-1">
          <mxGeometry x="175" y="280" width="150" height="90" as="geometry" />
        </mxCell>
        <mxCell id="Tbp9QO6u7D3Sz9GEOeP3-10" value="" style="edgeStyle=orthogonalEdgeStyle;rounded=0;orthogonalLoop=1;jettySize=auto;html=1;" edge="1" parent="WIyWlLk6GJQsqaUBKTNV-1" source="Tbp9QO6u7D3Sz9GEOeP3-5" target="Tbp9QO6u7D3Sz9GEOeP3-9">
          <mxGeometry relative="1" as="geometry" />
        </mxCell>
        <mxCell id="Tbp9QO6u7D3Sz9GEOeP3-5" value="&lt;div&gt;s = 0&lt;/div&gt;&lt;div&gt;h = (b - a) / n&lt;/div&gt;&lt;div&gt;k++&lt;br&gt;&lt;/div&gt;" style="whiteSpace=wrap;html=1;" vertex="1" parent="WIyWlLk6GJQsqaUBKTNV-1">
          <mxGeometry x="190" y="400" width="120" height="60" as="geometry" />
        </mxCell>
        <mxCell id="Tbp9QO6u7D3Sz9GEOeP3-12" value="" style="edgeStyle=orthogonalEdgeStyle;rounded=0;orthogonalLoop=1;jettySize=auto;html=1;" edge="1" parent="WIyWlLk6GJQsqaUBKTNV-1" source="Tbp9QO6u7D3Sz9GEOeP3-9" target="Tbp9QO6u7D3Sz9GEOeP3-11">
          <mxGeometry relative="1" as="geometry" />
        </mxCell>
        <mxCell id="Tbp9QO6u7D3Sz9GEOeP3-21" value="" style="edgeStyle=orthogonalEdgeStyle;rounded=0;orthogonalLoop=1;jettySize=auto;html=1;" edge="1" parent="WIyWlLk6GJQsqaUBKTNV-1" source="Tbp9QO6u7D3Sz9GEOeP3-9" target="Tbp9QO6u7D3Sz9GEOeP3-20">
          <mxGeometry relative="1" as="geometry" />
        </mxCell>
        <mxCell id="Tbp9QO6u7D3Sz9GEOeP3-9" value="i = 1 to n-1" style="shape=hexagon;perimeter=hexagonPerimeter2;whiteSpace=wrap;html=1;fixedSize=1;" vertex="1" parent="WIyWlLk6GJQsqaUBKTNV-1">
          <mxGeometry x="190" y="480" width="120" height="50" as="geometry" />
        </mxCell>
        <mxCell id="Tbp9QO6u7D3Sz9GEOeP3-14" value="да" style="edgeStyle=orthogonalEdgeStyle;rounded=0;orthogonalLoop=1;jettySize=auto;html=1;" edge="1" parent="WIyWlLk6GJQsqaUBKTNV-1" source="Tbp9QO6u7D3Sz9GEOeP3-11" target="Tbp9QO6u7D3Sz9GEOeP3-13">
          <mxGeometry x="-0.7714" relative="1" as="geometry">
            <mxPoint as="offset" />
          </mxGeometry>
        </mxCell>
        <mxCell id="Tbp9QO6u7D3Sz9GEOeP3-16" value="нет" style="edgeStyle=orthogonalEdgeStyle;rounded=0;orthogonalLoop=1;jettySize=auto;html=1;" edge="1" parent="WIyWlLk6GJQsqaUBKTNV-1" source="Tbp9QO6u7D3Sz9GEOeP3-11" target="Tbp9QO6u7D3Sz9GEOeP3-15">
          <mxGeometry relative="1" as="geometry" />
        </mxCell>
        <mxCell id="Tbp9QO6u7D3Sz9GEOeP3-11" value="i - четное?" style="rhombus;whiteSpace=wrap;html=1;" vertex="1" parent="WIyWlLk6GJQsqaUBKTNV-1">
          <mxGeometry x="210" y="550" width="80" height="80" as="geometry" />
        </mxCell>
        <mxCell id="Tbp9QO6u7D3Sz9GEOeP3-18" style="edgeStyle=orthogonalEdgeStyle;rounded=0;orthogonalLoop=1;jettySize=auto;html=1;entryX=0;entryY=0.5;entryDx=0;entryDy=0;" edge="1" parent="WIyWlLk6GJQsqaUBKTNV-1" source="Tbp9QO6u7D3Sz9GEOeP3-13" target="Tbp9QO6u7D3Sz9GEOeP3-9">
          <mxGeometry relative="1" as="geometry">
            <Array as="points">
              <mxPoint x="385" y="770" />
              <mxPoint x="170" y="770" />
              <mxPoint x="170" y="505" />
            </Array>
          </mxGeometry>
        </mxCell>
        <mxCell id="Tbp9QO6u7D3Sz9GEOeP3-13" value="s = s + 2*f(x + i * h)" style="whiteSpace=wrap;html=1;" vertex="1" parent="WIyWlLk6GJQsqaUBKTNV-1">
          <mxGeometry x="325" y="670" width="120" height="60" as="geometry" />
        </mxCell>
        <mxCell id="Tbp9QO6u7D3Sz9GEOeP3-19" style="edgeStyle=orthogonalEdgeStyle;rounded=0;orthogonalLoop=1;jettySize=auto;html=1;entryX=0;entryY=0.5;entryDx=0;entryDy=0;" edge="1" parent="WIyWlLk6GJQsqaUBKTNV-1" source="Tbp9QO6u7D3Sz9GEOeP3-15" target="Tbp9QO6u7D3Sz9GEOeP3-9">
          <mxGeometry relative="1" as="geometry">
            <Array as="points">
              <mxPoint x="250" y="770" />
              <mxPoint x="170" y="770" />
              <mxPoint x="170" y="505" />
            </Array>
          </mxGeometry>
        </mxCell>
        <mxCell id="Tbp9QO6u7D3Sz9GEOeP3-15" value="s = s + 4*f(x + i * h)" style="whiteSpace=wrap;html=1;" vertex="1" parent="WIyWlLk6GJQsqaUBKTNV-1">
          <mxGeometry x="190" y="670" width="120" height="60" as="geometry" />
        </mxCell>
        <mxCell id="Tbp9QO6u7D3Sz9GEOeP3-23" value="" style="edgeStyle=orthogonalEdgeStyle;rounded=0;orthogonalLoop=1;jettySize=auto;html=1;" edge="1" parent="WIyWlLk6GJQsqaUBKTNV-1" source="Tbp9QO6u7D3Sz9GEOeP3-20" target="Tbp9QO6u7D3Sz9GEOeP3-22">
          <mxGeometry relative="1" as="geometry" />
        </mxCell>
        <mxCell id="Tbp9QO6u7D3Sz9GEOeP3-20" value="s = s + f(a) + f(b)" style="whiteSpace=wrap;html=1;" vertex="1" parent="WIyWlLk6GJQsqaUBKTNV-1">
          <mxGeometry x="490" y="475" width="120" height="60" as="geometry" />
        </mxCell>
        <mxCell id="Tbp9QO6u7D3Sz9GEOeP3-25" value="да" style="edgeStyle=orthogonalEdgeStyle;rounded=0;orthogonalLoop=1;jettySize=auto;html=1;" edge="1" parent="WIyWlLk6GJQsqaUBKTNV-1" source="Tbp9QO6u7D3Sz9GEOeP3-22" target="Tbp9QO6u7D3Sz9GEOeP3-24">
          <mxGeometry relative="1" as="geometry" />
        </mxCell>
        <mxCell id="Tbp9QO6u7D3Sz9GEOeP3-27" value="нет" style="edgeStyle=orthogonalEdgeStyle;rounded=0;orthogonalLoop=1;jettySize=auto;html=1;" edge="1" parent="WIyWlLk6GJQsqaUBKTNV-1" source="Tbp9QO6u7D3Sz9GEOeP3-22" target="Tbp9QO6u7D3Sz9GEOeP3-26">
          <mxGeometry relative="1" as="geometry" />
        </mxCell>
        <mxCell id="Tbp9QO6u7D3Sz9GEOeP3-22" value="&lt;div&gt;s == infinity&lt;/div&gt;&lt;div&gt;or&lt;/div&gt;&lt;div&gt;s == NaN&lt;br&gt;&lt;/div&gt;" style="rhombus;whiteSpace=wrap;html=1;" vertex="1" parent="WIyWlLk6GJQsqaUBKTNV-1">
          <mxGeometry x="485" y="560" width="130" height="110" as="geometry" />
        </mxCell>
        <mxCell id="Tbp9QO6u7D3Sz9GEOeP3-38" style="edgeStyle=orthogonalEdgeStyle;rounded=0;orthogonalLoop=1;jettySize=auto;html=1;entryX=0.667;entryY=0.063;entryDx=0;entryDy=0;entryPerimeter=0;" edge="1" parent="WIyWlLk6GJQsqaUBKTNV-1" source="Tbp9QO6u7D3Sz9GEOeP3-24" target="Tbp9QO6u7D3Sz9GEOeP3-35">
          <mxGeometry relative="1" as="geometry">
            <Array as="points">
              <mxPoint x="780" y="650" />
              <mxPoint x="780" y="650" />
            </Array>
          </mxGeometry>
        </mxCell>
        <mxCell id="Tbp9QO6u7D3Sz9GEOeP3-24" value="Не удалось посчитать интеграл" style="shape=parallelogram;perimeter=parallelogramPerimeter;whiteSpace=wrap;html=1;fixedSize=1;" vertex="1" parent="WIyWlLk6GJQsqaUBKTNV-1">
          <mxGeometry x="680" y="587.5" width="170" height="55" as="geometry" />
        </mxCell>
        <mxCell id="Tbp9QO6u7D3Sz9GEOeP3-29" value="" style="edgeStyle=orthogonalEdgeStyle;rounded=0;orthogonalLoop=1;jettySize=auto;html=1;" edge="1" parent="WIyWlLk6GJQsqaUBKTNV-1" source="Tbp9QO6u7D3Sz9GEOeP3-26" target="Tbp9QO6u7D3Sz9GEOeP3-28">
          <mxGeometry relative="1" as="geometry" />
        </mxCell>
        <mxCell id="Tbp9QO6u7D3Sz9GEOeP3-26" value="&lt;div&gt;s = h / 3 * s&lt;/div&gt;&lt;div&gt;err = |old_s - s|&lt;/div&gt;&lt;div&gt;old_s = s&lt;/div&gt;&lt;div&gt;n = n * 2&lt;br&gt; &lt;/div&gt;" style="whiteSpace=wrap;html=1;" vertex="1" parent="WIyWlLk6GJQsqaUBKTNV-1">
          <mxGeometry x="490" y="700" width="120" height="60" as="geometry" />
        </mxCell>
        <mxCell id="Tbp9QO6u7D3Sz9GEOeP3-30" value="да" style="edgeStyle=orthogonalEdgeStyle;rounded=0;orthogonalLoop=1;jettySize=auto;html=1;entryX=0;entryY=0.5;entryDx=0;entryDy=0;" edge="1" parent="WIyWlLk6GJQsqaUBKTNV-1" source="Tbp9QO6u7D3Sz9GEOeP3-28" target="Tbp9QO6u7D3Sz9GEOeP3-5">
          <mxGeometry x="-0.9268" relative="1" as="geometry">
            <Array as="points">
              <mxPoint x="140" y="830" />
              <mxPoint x="140" y="430" />
            </Array>
            <mxPoint as="offset" />
          </mxGeometry>
        </mxCell>
        <mxCell id="Tbp9QO6u7D3Sz9GEOeP3-34" value="нет" style="edgeStyle=orthogonalEdgeStyle;rounded=0;orthogonalLoop=1;jettySize=auto;html=1;" edge="1" parent="WIyWlLk6GJQsqaUBKTNV-1" source="Tbp9QO6u7D3Sz9GEOeP3-28" target="Tbp9QO6u7D3Sz9GEOeP3-33">
          <mxGeometry relative="1" as="geometry" />
        </mxCell>
        <mxCell id="Tbp9QO6u7D3Sz9GEOeP3-28" value="&amp;nbsp;err &amp;gt; eps" style="rhombus;whiteSpace=wrap;html=1;" vertex="1" parent="WIyWlLk6GJQsqaUBKTNV-1">
          <mxGeometry x="510" y="790" width="80" height="80" as="geometry" />
        </mxCell>
        <mxCell id="Tbp9QO6u7D3Sz9GEOeP3-36" style="edgeStyle=orthogonalEdgeStyle;rounded=0;orthogonalLoop=1;jettySize=auto;html=1;entryX=0.5;entryY=1;entryDx=0;entryDy=0;" edge="1" parent="WIyWlLk6GJQsqaUBKTNV-1" source="Tbp9QO6u7D3Sz9GEOeP3-33" target="Tbp9QO6u7D3Sz9GEOeP3-35">
          <mxGeometry relative="1" as="geometry">
            <Array as="points">
              <mxPoint x="760" y="790" />
              <mxPoint x="760" y="790" />
            </Array>
          </mxGeometry>
        </mxCell>
        <mxCell id="Tbp9QO6u7D3Sz9GEOeP3-33" value="Вывод s, k, err" style="shape=parallelogram;perimeter=parallelogramPerimeter;whiteSpace=wrap;html=1;fixedSize=1;" vertex="1" parent="WIyWlLk6GJQsqaUBKTNV-1">
          <mxGeometry x="650" y="800" width="120" height="60" as="geometry" />
        </mxCell>
        <mxCell id="Tbp9QO6u7D3Sz9GEOeP3-35" value="Конец" style="ellipse;whiteSpace=wrap;html=1;" vertex="1" parent="WIyWlLk6GJQsqaUBKTNV-1">
          <mxGeometry x="700" y="690" width="120" height="80" as="geometry" />
        </mxCell>
      </root>
    </mxGraphModel>
  </diagram>
</mxfile>
